<svg xmlns="http://www.w3.org/2000/svg" xml:space="preserve" width="2000" height="291" data-id="lg_15fwLdIlhUSIw4N0Xt" data-version="1"><g data-padding="20"><g transform="translate(10 7.115)scale(.9511)"><path fill="#33332d" d="M877.525 291.077q-13.81 0-22.98-5.2-9.18-5.19-13.7-14.61-4.53-9.42-4.53-22.01 0-13.94 5.08-24.4 5.07-10.45 14.73-16.2 9.67-5.75 23.24-5.75 12.72 0 20.3 4.47 7.58 4.46 7.58 11.31 0 4.03-2.57 6.42-2.57 2.38-7.46 2.38-3.18 0-6.23-1.34-3.06-1.35-6.55-2.63-3.48-1.29-8.25-1.29-6.11 0-11.31 2.33-5.2 2.32-8.32 7.76t-3.12 14.74q0 14.06 6.18 19.93t16.32 5.87q3.55 0 7.46-.67 3.92-.68 7.34-1.35 3.43-.67 5.5-.67 4.16 0 6.61 2.02 2.44 2.01 2.44 5.93 0 5.62-7.09 9.29t-20.67 3.67m69.34-.98q-9.78 0-17.06-4.34t-11.25-12.41-3.97-19.2q0-11.62 4.03-20.3 4.04-8.68 11.44-13.57 7.39-4.89 17.18-4.89 10.51 0 18.22 4.7 7.7 4.71 11.98 13.15t4.28 19.69q0 11.49-4.28 19.81-4.28 8.31-12.11 12.84-7.82 4.52-18.46 4.52m1.71-16.51q7.58 0 12.05-6.05 4.46-6.05 4.46-16.08 0-10.15-4.46-16.14-4.47-5.99-12.05-5.99-7.82 0-12.35 5.99-4.52 5.99-4.52 16.14 0 10.03 4.52 16.08 4.53 6.05 12.35 6.05m75.21 16.51q-9.79 0-17.06-4.34-7.28-4.34-11.25-12.41-3.98-8.07-3.98-19.2 0-11.62 4.04-20.3 4.03-8.68 11.43-13.57t17.18-4.89q10.52 0 18.22 4.7 7.71 4.71 11.99 13.15t4.28 19.69q0 11.49-4.28 19.81-4.28 8.31-12.11 12.84-7.83 4.52-18.46 4.52m1.71-16.51q7.58 0 12.04-6.05 4.47-6.05 4.47-16.08 0-10.15-4.47-16.14-4.46-5.99-12.04-5.99-7.83 0-12.35 5.99-4.53 5.99-4.53 16.14 0 10.03 4.53 16.08 4.52 6.05 12.35 6.05m53.8 17.37q-2.32 0-3.79-1.41t-2.08-4.1q-.98-4.52-1.71-13.08t-.73-18.95q0-12.84.91-24.71.92-11.86 2.39-19.44 1.59-8.19 3.91-12.04 2.33-3.86 6.12-3.86 3.42 0 5.25 3.12 1.84 3.12 1.84 10.7t-.55 16.27q-.55 8.68-1.77 18.58h.48q7.95-10.76 14.86-17.24t12.72-9.41q5.81-2.94 10.33-2.94 3.55 0 5.26 2.2t1.71 5.38q0 6.24-9.96 13.94-9.97 7.71-28.68 15.78l.12-1.96q11.62 5.99 20 12.54 8.37 6.54 12.84 12.35 4.46 5.8 4.46 9.72 0 3.18-2.02 5.19-2.02 2.02-5.81 2.02-4.77 0-10.57-3.61-5.81-3.6-12.05-10.82-6.24-7.21-12.47-18.1h-.49q-.12 7.71-.92 14.98-.79 7.28-2.02 11.93-.85 3.18-2.62 5.07-1.78 1.9-4.96 1.9m75.82-95.02q4.89 0 7.03 2.69t2.14 6.24q0 4.4-2.63 6.79-2.63 2.38-7.4 2.38-4.64 0-6.97-2.63-2.32-2.63-2.32-6.17 0-4.65 2.81-6.97 2.81-2.33 7.34-2.33m.73 27.27q3.92 0 6.18 7.34t2.26 23.36q0 19.68-2.81 28.37-2.81 8.68-8.56 8.68-4.4 0-6.48-6.42t-2.08-22.44q0-19.69 3.24-29.29t8.25-9.6m57.6 67.5q-13.58 0-21.65-4.03-8.07-4.04-11.61-11.62-3.55-7.58-3.55-18.1 0-13.33 4.95-22.68 4.96-9.36 13.7-14.37t19.87-5.01q13.08 0 19.2 6.05 6.11 6.05 6.11 15.84 0 7.82-4.09 13.51-4.1 5.68-11.31 8.74-7.22 3.06-16.64 3.06-5.25 0-10.14-1.35-4.9-1.34-8.81-3.67l2.94-5.38q-.37 2.94-.37 5.87 0 8.56 5.38 12.29t15.28 3.73q7.71 0 12.36-1.34 4.64-1.35 7.82-2.63 3.18-1.29 6.24-1.29 1.71 0 3.12.92 1.4.92 2.32 2.63t.92 4.16q0 3.67-3.67 7.03t-10.82 5.5q-7.16 2.14-17.55 2.14m-7.09-39.98q8.68 0 13.94-3.67 5.25-3.67 5.25-9.05 0-4.28-2.87-7.03t-8.99-2.75q-5.74 0-10.33 2.14t-7.15 5.56q-2.57 3.42-2.57 7.46 0 3.55 3.36 5.44 3.36 1.9 9.36 1.9" font-family="DynaPuff" font-size="122.284"/><path fill="#7fc37e" d="M1038.44 151.375c-42.361-.069-76.688-34.395-76.756-76.756A77.19 77.19 0 0 1 1005.41 5.41a6.79 6.79 0 0 1 9.563 4.805c.651 3.333 3.24 11.036 13.3 11.036 7.036 0 10.384-3.813 11.934-7.006a6.774 6.774 0 0 1 12.865 3.162c-.14 5.193 1.302 9.842 3.844 12.462 3.38 3.457 9.207 3.689 16.973.899a6.758 6.758 0 0 1 7.626 10.54c-2.96 3.782-3.24 9.331-.729 14.477a17.36 17.36 0 0 0 15.965 9.765c3.023 0 5.704-.635 8.184-1.969a6.79 6.79 0 0 1 9.967 5.472l.062.837q.217 2.34.232 4.727c-.043 42.374-34.382 76.713-76.756 76.757m-33.759-130.092a63.55 63.55 0 0 0-29.45 53.336c.044 34.89 28.319 63.165 63.21 63.209 33.282-.04 60.852-25.847 63.084-59.055q-2.325.34-4.774.34a31 31 0 0 1-28.148-17.39 29.45 29.45 0 0 1-2.945-15.532l-1.147.016c-6.913 0-12.896-2.387-17.282-6.882a26.4 26.4 0 0 1-5.177-7.983 27.9 27.9 0 0 1-13.78 3.457c-10.416 0-19.003-5.115-23.59-13.531m104.871-8.742a5.642 5.642 0 1 1-11.284 0 5.642 5.642 0 0 1 11.284 0"/><circle cx="412.771" cy="-145.189" r="6.19" fill="#7fc37e" transform="translate(365.537 283.03)scale(1.55)"/><circle cx="412.771" cy="-145.189" r="6.19" fill="#7fc37e" transform="translate(372.481 320.711)scale(1.55)"/><circle cx="412.771" cy="-145.189" r="6.19" fill="#7fc37e" transform="translate(407.666 332.755)scale(1.55)"/><circle cx="412.771" cy="-145.189" r="6.19" fill="#7fc37e" transform="translate(403.357 294.438)scale(1.55)"/><path fill="#7fc37e" d="M1082.258 8.759a8.843 8.843 0 0 1-17.685 0 8.835 8.835 0 0 1 17.67 0"/><circle cx="412.771" cy="-145.189" r="4.01" fill="#7fc37e" transform="translate(465.233 267.468)scale(1.55)"/></g><path fill="transparent" stroke="transparent" d="M795.5 0h409v291h-409z"/></g></svg>